<svg width="20" height="20" viewBox="0 0 20 20" fill="none" xmlns="http://www.w3.org/2000/svg">
<path d="M10 0.150391C12.0373 0.150391 12.7363 0.15668 13.4072 0.180664L14.1172 0.210938C15.0347 0.251507 15.6939 0.384349 16.2598 0.578125L16.4971 0.665039H16.498C17.0635 0.877961 17.5823 1.1971 18.0273 1.60352L18.2139 1.7832L18.2158 1.78516C18.6476 2.20892 18.9944 2.71036 19.2373 3.2627L19.335 3.50293V3.50391C19.5453 4.04469 19.6988 4.65773 19.7656 5.50586L19.7891 5.88379C19.8379 6.9463 19.8486 7.28467 19.8486 10C19.8486 12.0366 19.843 12.7354 19.8193 13.4062L19.7891 14.1162C19.7485 15.0347 19.6156 15.6939 19.4219 16.2598L19.335 16.4971V16.498C19.1218 17.0636 18.8023 17.5824 18.3955 18.0273L18.2158 18.2139L18.2139 18.2158C17.7902 18.6476 17.2886 18.9943 16.7363 19.2373L16.4971 19.335H16.4961C15.9544 19.5453 15.3421 19.6991 14.4941 19.7666L14.1162 19.79C13.0537 19.8389 12.7153 19.8496 10 19.8496C7.96345 19.8496 7.26464 19.8433 6.59375 19.8193L5.88379 19.7891C4.96529 19.7476 4.30629 19.6154 3.74121 19.4219L3.50391 19.335H3.50293C2.93668 19.122 2.41719 18.8025 1.97168 18.3955L1.78516 18.2158L1.7832 18.2139L1.60352 18.0273C1.25495 17.6455 0.970721 17.2096 0.762695 16.7363L0.665039 16.4971V16.4961L0.578125 16.2588C0.412224 15.7744 0.291241 15.2209 0.233398 14.4941L0.209961 14.1162C0.161121 13.0537 0.150391 12.7153 0.150391 10C0.150391 7.9636 0.155439 7.26421 0.179688 6.59375L0.210938 5.88379C0.252374 4.96529 0.384614 4.30629 0.578125 3.74121L0.665039 3.50391V3.50293C0.877759 2.93679 1.1969 2.41723 1.60352 1.97168L1.7832 1.78516L1.78516 1.7832C2.20899 1.35178 2.71044 1.00532 3.2627 0.762695L3.50293 0.665039H3.50391C4.04468 0.45469 4.65772 0.300881 5.50586 0.233398L5.88379 0.209961C6.94731 0.161121 7.28367 0.150391 10 0.150391ZM10 1.65039C7.99741 1.65039 7.3172 1.65572 6.65625 1.67969L5.95312 1.70996C5.20964 1.74352 4.71641 1.84471 4.36133 1.9541L4.04785 2.06445C3.56091 2.25291 3.2112 2.48118 2.84668 2.8457C2.52751 3.16487 2.31266 3.47332 2.1377 3.87109L2.06543 4.04785C1.94157 4.36935 1.7974 4.82691 1.7334 5.60059L1.71094 5.95215C1.66278 7.01062 1.65332 7.33038 1.65332 10.001C1.65332 12.0036 1.65838 12.6838 1.68164 13.3447L1.71094 14.0479C1.74449 14.7913 1.84569 15.2846 1.95508 15.6396L2.06543 15.9531C2.23301 16.4057 2.50007 16.8145 2.8457 17.1514V17.1523C3.18389 17.5004 3.59552 17.7684 4.05078 17.9365V17.9355C4.37192 18.0604 4.82945 18.2034 5.60156 18.2676L5.95312 18.29C7.01066 18.3382 7.3295 18.3467 10 18.3467C12.0035 18.3467 12.6838 18.3415 13.3447 18.3184L14.0479 18.2891C15.0371 18.2444 15.5823 18.0771 15.9502 17.9346L15.9512 17.9355C16.4064 17.7675 16.8181 17.4994 17.1562 17.1514L17.1553 17.1504C17.5019 16.8127 17.7699 16.4032 17.9375 15.9492L17.9365 15.9482C18.0603 15.6275 18.2039 15.1703 18.2676 14.3984L18.29 14.0469C18.3392 12.9884 18.3486 12.6695 18.3486 9.99902C18.3486 7.99517 18.3429 7.31553 18.3193 6.6543L18.29 5.95117C18.2572 5.20738 18.1551 4.71429 18.0459 4.35938L17.9365 4.04688C17.7471 3.56076 17.5191 3.20957 17.1543 2.84473C16.8351 2.52552 16.5262 2.31037 16.1279 2.13574L15.9521 2.06348C15.6307 1.93961 15.1731 1.79544 14.3994 1.73145L14.0479 1.70898C12.9894 1.65982 12.6705 1.65039 10 1.65039ZM10 5.01465C11.3221 5.01465 12.5905 5.53974 13.5254 6.47461C14.4603 7.40948 14.9854 8.6779 14.9854 10L14.9785 10.2451C14.9504 10.8159 14.8246 11.3781 14.6055 11.9072C14.3549 12.512 13.9883 13.0625 13.5254 13.5254C13.0625 13.9883 12.512 14.3549 11.9072 14.6055C11.3025 14.8559 10.6545 14.9854 10 14.9854C9.34549 14.9854 8.69748 14.8559 8.09277 14.6055C7.48797 14.3549 6.93751 13.9883 6.47461 13.5254C6.01171 13.0625 5.64505 12.512 5.39453 11.9072C5.14411 11.3025 5.01465 10.6545 5.01465 10L5.02148 9.75293C5.08258 8.52079 5.59815 7.35107 6.47461 6.47461C7.40948 5.53974 8.6779 5.01465 10 5.01465ZM10.001 6.5166C9.54352 6.5166 9.08963 6.60619 8.66699 6.78125C8.24444 6.95631 7.86053 7.21369 7.53711 7.53711C7.21375 7.86053 6.95724 8.24446 6.78223 8.66699C6.60717 9.08962 6.5166 9.54255 6.5166 10C6.5166 10.9238 6.88398 11.8096 7.53711 12.4629C8.19039 13.1162 9.07709 13.4834 10.001 13.4834C10.9247 13.4833 11.8107 13.1161 12.4639 12.4629C13.117 11.8096 13.4844 10.9238 13.4844 10L13.4795 9.8291C13.4599 9.43004 13.372 9.03691 13.2188 8.66699C13.0437 8.24446 12.7872 7.86053 12.4639 7.53711C12.1404 7.21369 11.7565 6.95631 11.334 6.78125C10.9115 6.60625 10.4583 6.51666 10.001 6.5166ZM15.3379 3.6123C15.5455 3.6123 15.7483 3.6738 15.9209 3.78906C16.0934 3.90433 16.2281 4.06813 16.3076 4.25977C16.3871 4.45163 16.4087 4.66351 16.3682 4.86719C16.3276 5.07076 16.2269 5.25752 16.0801 5.4043C15.9333 5.55104 15.7465 5.65088 15.543 5.69141C15.3394 5.73191 15.1283 5.71124 14.9365 5.63184C14.7447 5.55236 14.5802 5.41779 14.4648 5.24512C14.3496 5.07252 14.2881 4.86966 14.2881 4.66211L14.293 4.55859C14.3168 4.31813 14.4234 4.0923 14.5957 3.91992C14.7926 3.72303 15.0595 3.61233 15.3379 3.6123Z" fill="black" stroke="black" stroke-width="0.3"/>
</svg>
