<svg width="245" height="21" viewBox="0 0 245 21" fill="none" xmlns="http://www.w3.org/2000/svg">
<path d="M46.4612 15.2694C45.4612 14.654 44.692 13.8848 44.0766 12.8848C43.4612 11.8848 43.2305 10.7309 43.2305 9.50015C43.2305 8.2694 43.5382 7.11555 44.0766 6.11555C44.692 5.11553 45.4612 4.26937 46.4612 3.73091C47.4612 3.11553 48.5382 2.88477 49.769 2.88477C50.6923 2.88477 51.6153 3.0386 52.3843 3.3463C53.2303 3.65399 53.8458 4.11553 54.3843 4.73091L53.3073 5.80785C52.9228 5.34629 52.3843 4.96168 51.7688 4.65399C51.1538 4.42322 50.4613 4.26937 49.769 4.26937C48.8459 4.26937 48.0766 4.50014 47.3074 4.88476C46.5382 5.3463 45.9228 5.9617 45.4613 6.7309C44.9997 7.50015 44.7689 8.42325 44.7689 9.42325C44.7689 10.4233 44.9997 11.3463 45.4613 12.1156C45.9228 12.8848 46.5382 13.5002 47.3074 13.9617C48.0766 14.4232 48.9228 14.5771 49.769 14.5771C50.6153 14.5771 51.3073 14.4232 51.9228 14.1925C52.4613 13.9617 52.9998 13.5771 53.3843 13.1155C53.6918 12.8079 53.9228 12.3463 54.1538 11.8848C54.3073 11.4232 54.4613 10.8848 54.4613 10.3463H49.769V8.9617H55.8458C55.9228 9.26935 55.9228 9.5771 55.9228 9.88475C55.9228 10.654 55.7688 11.4233 55.5383 12.1925C55.3073 12.9617 54.9228 13.5771 54.3843 14.1156C53.1538 15.3463 51.6153 16.0386 49.692 16.0386C48.5382 16.1156 47.4612 15.8848 46.4612 15.2694Z" fill="#656C73"/>
<path d="M59.3078 15.5C58.6158 15.1154 58.0773 14.5 57.6928 13.8077C57.3078 13.1154 57.1543 12.2692 57.1543 11.4231C57.1543 10.5769 57.3078 9.73071 57.6928 9.03841C58.0773 8.34611 58.6158 7.73071 59.3078 7.34611C60.0003 6.96151 60.7693 6.73071 61.6158 6.73071C62.4618 6.73071 63.2308 6.96151 63.9233 7.34611C64.6158 7.73071 65.1543 8.34611 65.5388 9.03841C65.9233 9.73071 66.0773 10.5769 66.0773 11.4231C66.0773 12.2692 65.9233 13.1154 65.5388 13.8077C65.1543 14.5 64.6158 15.1154 63.9233 15.5C63.2308 15.8846 62.4618 16.1154 61.6158 16.1154C60.7693 16.1154 59.9233 15.9615 59.3078 15.5ZM63.0773 14.3461C63.5388 14.0384 63.9233 13.6538 64.1543 13.1923C64.4618 12.6538 64.5388 12.1154 64.5388 11.4231C64.5388 10.7308 64.3848 10.1923 64.1543 9.65381C63.8463 9.11536 63.5388 8.73071 63.0773 8.49996C62.6158 8.19226 62.1543 8.11536 61.6158 8.11536C61.0773 8.11536 60.6158 8.26921 60.1543 8.49996C59.6928 8.80766 59.3078 9.19226 59.0773 9.65381C58.7693 10.1923 58.6928 10.7308 58.6928 11.4231C58.6928 12.1154 58.8463 12.6538 59.0773 13.1923C59.3848 13.7307 59.6928 14.1154 60.1543 14.3461C60.6158 14.6538 61.0773 14.7307 61.6158 14.7307C62.1543 14.8077 62.6158 14.6538 63.0773 14.3461Z" fill="#656C73"/>
<path d="M69.3078 15.5C68.6158 15.1154 68.0773 14.5 67.6928 13.8077C67.3078 13.1154 67.1543 12.2692 67.1543 11.4231C67.1543 10.5769 67.3078 9.73071 67.6928 9.03841C68.0773 8.34611 68.6158 7.73071 69.3078 7.34611C70.0003 6.96151 70.7693 6.73071 71.6158 6.73071C72.4618 6.73071 73.2308 6.96151 73.9233 7.34611C74.6158 7.73071 75.1543 8.34611 75.5388 9.03841C75.9233 9.73071 76.0773 10.5769 76.0773 11.4231C76.0773 12.2692 75.9233 13.1154 75.5388 13.8077C75.1543 14.5 74.6158 15.1154 73.9233 15.5C73.2308 15.8846 72.4618 16.1154 71.6158 16.1154C70.7693 16.1154 70.0003 15.9615 69.3078 15.5ZM73.1543 14.3461C73.6158 14.0384 74.0003 13.6538 74.2308 13.1923C74.5388 12.6538 74.6158 12.1154 74.6158 11.4231C74.6158 10.7308 74.4618 10.1923 74.2308 9.65381C73.9233 9.11536 73.6158 8.73071 73.1543 8.49996C72.6928 8.19226 72.2308 8.11536 71.6928 8.11536C71.1543 8.11536 70.6928 8.26921 70.2308 8.49996C69.7693 8.80766 69.3848 9.19226 69.1543 9.65381C68.8463 10.1923 68.7693 10.7308 68.7693 11.4231C68.7693 12.1154 68.9233 12.6538 69.1543 13.1923C69.4618 13.7307 69.7693 14.1154 70.2308 14.3461C70.6928 14.6538 71.1543 14.7307 71.6928 14.7307C72.1543 14.8077 72.6928 14.6538 73.1543 14.3461Z" fill="#656C73"/>
<path d="M78.9233 19.1923C78.2308 18.6538 77.7693 18.1154 77.5388 17.423L78.9233 16.8077C79.0773 17.3461 79.3848 17.7307 79.8463 18.0384C80.3078 18.3461 80.8463 18.5 81.4618 18.5C82.3848 18.5 83.0773 18.1923 83.6158 17.6538C84.1543 17.1153 84.3848 16.3461 84.3848 15.3461V14.423H84.3078C84.0003 14.8846 83.6158 15.2692 83.0773 15.5769C82.5388 15.8846 81.9233 16.0384 81.3078 16.0384C80.5388 16.0384 79.8463 15.8077 79.2308 15.423C78.6158 15.0384 78.0773 14.5 77.6928 13.7307C77.3078 13.0384 77.1543 12.1923 77.1543 11.3461C77.1543 10.423 77.3078 9.65381 77.6928 8.96151C78.0773 8.26916 78.6158 7.65381 79.2308 7.26916C79.8463 6.88456 80.5388 6.65381 81.3078 6.65381C82.0003 6.65381 82.6158 6.80766 83.0773 7.11536C83.6158 7.42301 84.0003 7.80766 84.3078 8.26921H84.3848V6.96151H85.8463V15.423C85.8463 16.423 85.6928 17.1923 85.3078 17.8846C84.9233 18.5769 84.3848 19.0384 83.7693 19.423C83.0773 19.7307 82.3848 19.8846 81.5388 19.8846C80.4618 19.9615 79.6158 19.7307 78.9233 19.1923ZM83.0003 14.3461C83.4618 14.1154 83.7693 13.7307 84.0773 13.1923C84.3078 12.7307 84.4618 12.1154 84.4618 11.4231C84.4618 10.7307 84.3078 10.1923 84.0773 9.65381C83.8463 9.11531 83.4618 8.73071 83.0003 8.49996C82.5388 8.26916 82.0773 8.11531 81.5388 8.11531C81.0003 8.11531 80.5388 8.26916 80.0773 8.49996C79.6158 8.73071 79.3078 9.11531 79.0003 9.65381C78.7693 10.1153 78.6158 10.7307 78.6158 11.4231C78.6158 12.1154 78.7693 12.6538 79.0003 13.1923C79.2313 13.6538 79.6158 14.0384 80.0773 14.3461C80.5388 14.5769 81.0003 14.7307 81.5388 14.7307C82.0773 14.8077 82.5388 14.6538 83.0003 14.3461Z" fill="#656C73"/>
<path d="M89.2309 3.19238H87.6924V15.8847H89.2309V3.19238Z" fill="#656C73"/>
<path d="M92.6922 15.5C92.0002 15.1154 91.5387 14.5769 91.1537 13.8077C90.7692 13.1154 90.6152 12.2692 90.6152 11.4231C90.6152 10.5769 90.7692 9.80766 91.1537 9.03841C91.5387 8.34611 92.0002 7.73071 92.6922 7.34611C93.3847 6.96151 94.0772 6.73071 94.9232 6.73071C95.7692 6.73071 96.5387 6.88456 97.1537 7.26916C97.7692 7.65381 98.3077 8.19226 98.6157 8.88456C98.9232 9.57686 99.1537 10.3461 99.1537 11.2692C99.1537 11.4231 99.1537 11.5769 99.1537 11.6538H92.1537C92.1537 12.3461 92.3077 12.8846 92.6152 13.3461C92.9232 13.8077 93.3077 14.1154 93.6922 14.3461C94.1537 14.5769 94.6152 14.6538 95.0772 14.6538C96.1537 14.6538 97.0772 14.1154 97.6152 13.0384L98.9232 13.6538C98.5387 14.3461 98.0002 14.9615 97.3847 15.3461C96.6922 15.8077 95.9232 15.9615 95.0002 15.9615C94.1537 16.1154 93.3847 15.9615 92.6922 15.5ZM97.5387 10.5C97.5387 10.1154 97.3847 9.80766 97.2307 9.42306C97.0772 9.03841 96.7692 8.73071 96.3847 8.49996C96.0002 8.26921 95.4617 8.11536 94.8462 8.11536C94.1537 8.11536 93.6152 8.34611 93.1537 8.73076C92.6922 9.19226 92.3847 9.73071 92.2307 10.423H97.5387V10.5Z" fill="#656C73"/>
<path d="M104.846 3.19238H108.692C110 3.19238 111.154 3.50008 112.077 3.96161C113.077 4.50008 113.769 5.2693 114.307 6.19238C114.846 7.11548 115.077 8.26933 115.077 9.50008C115.077 10.7309 114.846 11.8078 114.307 12.8078C113.769 13.7308 113.077 14.5001 112.077 15.0385C111.077 15.577 110 15.8078 108.692 15.8078H104.846V3.19238ZM108.692 14.4232C110.154 14.4232 111.384 13.9616 112.231 13.1155C113.077 12.2693 113.538 11.0385 113.538 9.50008C113.538 7.96163 113.077 6.73083 112.231 5.88468C111.384 5.03854 110.154 4.577 108.692 4.577H106.384V14.4232H108.692Z" fill="#656C73"/>
<path d="M118.539 15.5C117.846 15.1154 117.385 14.5769 117 13.8077C116.616 13.1154 116.462 12.2692 116.462 11.4231C116.462 10.5769 116.616 9.80766 117 9.03841C117.385 8.34611 117.846 7.73071 118.539 7.34611C119.231 6.96151 119.923 6.73071 120.769 6.73071C121.616 6.73071 122.385 6.88456 123 7.26916C123.616 7.65381 124.154 8.19226 124.462 8.88456C124.769 9.57686 125 10.3461 125 11.2692C125 11.4231 125 11.5769 125 11.6538H118C118 12.3461 118.154 12.8846 118.462 13.3461C118.769 13.8077 119.154 14.1154 119.539 14.3461C120 14.5769 120.462 14.6538 120.923 14.6538C122 14.6538 122.923 14.1154 123.462 13.0384L124.769 13.6538C124.385 14.3461 123.846 14.9615 123.231 15.3461C122.539 15.8077 121.769 15.9615 120.846 15.9615C120 16.1154 119.231 15.9615 118.539 15.5ZM123.385 10.5C123.385 10.1154 123.231 9.80766 123.077 9.42306C122.923 9.03841 122.616 8.73071 122.231 8.49996C121.846 8.26921 121.308 8.11536 120.692 8.11536C120 8.11536 119.462 8.34611 119 8.73076C118.539 9.19226 118.231 9.73071 118.077 10.423H123.385V10.5Z" fill="#656C73"/>
<path d="M125.308 7.03857H126.923L129.616 14.1155H129.692L132.385 7.03857H134L130.385 15.8847H128.846L125.308 7.03857Z" fill="#656C73"/>
<path d="M136.769 15.5C136.077 15.1154 135.615 14.5769 135.231 13.8077C134.846 13.1154 134.692 12.2692 134.692 11.4231C134.692 10.5769 134.846 9.80766 135.231 9.03841C135.615 8.34611 136.077 7.73071 136.769 7.34611C137.461 6.96151 138.154 6.73071 139 6.73071C139.846 6.73071 140.615 6.88456 141.231 7.26916C141.846 7.65381 142.384 8.19226 142.692 8.88456C143 9.57686 143.231 10.3461 143.231 11.2692C143.231 11.4231 143.231 11.5769 143.231 11.6538H136.154C136.154 12.3461 136.308 12.8846 136.615 13.3461C136.923 13.8077 137.308 14.1154 137.692 14.3461C138.154 14.5769 138.615 14.6538 139.077 14.6538C140.154 14.6538 141.077 14.1154 141.615 13.0384L142.923 13.6538C142.538 14.3461 142 14.9615 141.384 15.3461C140.692 15.8077 139.923 15.9615 139 15.9615C138.154 16.1154 137.384 15.9615 136.769 15.5ZM141.538 10.5C141.538 10.1154 141.384 9.80766 141.231 9.42306C141.077 9.03841 140.769 8.73071 140.384 8.49996C140 8.26921 139.461 8.11536 138.846 8.11536C138.154 8.11536 137.615 8.34611 137.154 8.73076C136.692 9.19226 136.384 9.73071 136.231 10.423H141.538V10.5Z" fill="#656C73"/>
<path d="M146.231 3.19238H144.692V15.8847H146.231V3.19238Z" fill="#656C73"/>
<path d="M149.769 15.5C149.077 15.1154 148.539 14.5 148.154 13.8077C147.769 13.1154 147.615 12.2692 147.615 11.4231C147.615 10.5769 147.769 9.73071 148.154 9.03841C148.539 8.34611 149.077 7.73071 149.769 7.34611C150.462 6.96151 151.231 6.73071 152.077 6.73071C152.923 6.73071 153.692 6.96151 154.385 7.34611C155.077 7.73071 155.615 8.34611 156 9.03841C156.385 9.73071 156.539 10.5769 156.539 11.4231C156.539 12.2692 156.385 13.1154 156 13.8077C155.615 14.5 155.077 15.1154 154.385 15.5C153.692 15.8846 152.923 16.1154 152.077 16.1154C151.231 16.1154 150.462 15.9615 149.769 15.5ZM153.615 14.3461C154.077 14.0384 154.462 13.6538 154.692 13.1923C155 12.6538 155.077 12.1154 155.077 11.4231C155.077 10.7308 154.923 10.1923 154.692 9.65381C154.385 9.11536 154.077 8.73071 153.615 8.49996C153.154 8.19226 152.692 8.11536 152.154 8.11536C151.615 8.11536 151.154 8.26921 150.692 8.49996C150.231 8.80766 149.846 9.19226 149.615 9.65381C149.308 10.1923 149.231 10.7308 149.231 11.4231C149.231 12.1154 149.385 12.6538 149.615 13.1923C149.923 13.7307 150.231 14.1154 150.692 14.3461C151.154 14.6538 151.615 14.7307 152.154 14.7307C152.615 14.8077 153.154 14.6538 153.615 14.3461Z" fill="#656C73"/>
<path d="M158 7.03841H159.462V8.34611H159.538C159.846 7.88456 160.231 7.49996 160.769 7.19226C161.307 6.88456 161.923 6.73071 162.615 6.73071C163.384 6.73071 164.077 6.96151 164.693 7.34611C165.308 7.73071 165.846 8.34611 166.23 9.03841C166.615 9.73071 166.769 10.5769 166.769 11.4231C166.769 12.3461 166.615 13.1153 166.23 13.8077C165.846 14.5 165.308 15.0384 164.693 15.5C164.077 15.8846 163.384 16.1153 162.615 16.1153C161.923 16.1153 161.307 15.9615 160.769 15.6538C160.231 15.3461 159.846 14.9615 159.538 14.5H159.462L159.538 15.7307V19.6538H158V7.03841ZM163.769 14.3461C164.231 14.0384 164.538 13.6538 164.846 13.1923C165.077 12.6538 165.23 12.1154 165.23 11.4231C165.23 10.7308 165.077 10.1923 164.846 9.65381C164.615 9.11536 164.231 8.73071 163.769 8.49996C163.307 8.19226 162.846 8.11536 162.307 8.11536C161.769 8.11536 161.307 8.26921 160.846 8.49996C160.384 8.73071 160.077 9.11536 159.769 9.65381C159.538 10.1923 159.385 10.7308 159.385 11.4231C159.385 12.1154 159.538 12.6538 159.769 13.1923C160 13.7307 160.384 14.1154 160.846 14.3461C161.307 14.5769 161.769 14.7307 162.307 14.7307C162.846 14.8077 163.307 14.6538 163.769 14.3461Z" fill="#656C73"/>
<path d="M170.231 15.5C169.539 15.1154 169.077 14.5769 168.693 13.8077C168.308 13.1154 168.154 12.2692 168.154 11.4231C168.154 10.5769 168.308 9.80766 168.693 9.03841C169.077 8.34611 169.539 7.73071 170.231 7.34611C170.923 6.96151 171.616 6.73071 172.462 6.73071C173.308 6.73071 174.077 6.88456 174.693 7.26916C175.308 7.65381 175.846 8.19226 176.154 8.88456C176.462 9.57686 176.693 10.3461 176.693 11.2692C176.693 11.4231 176.693 11.5769 176.693 11.6538H169.693C169.693 12.3461 169.846 12.8846 170.154 13.3461C170.462 13.8077 170.846 14.1154 171.231 14.3461C171.693 14.5769 172.154 14.6538 172.616 14.6538C173.693 14.6538 174.616 14.1154 175.154 13.0384L176.462 13.6538C176.077 14.3461 175.539 14.9615 174.923 15.3461C174.231 15.8077 173.462 15.9615 172.539 15.9615C171.693 16.1154 170.923 15.9615 170.231 15.5ZM175.077 10.5C175.077 10.1154 174.923 9.80766 174.769 9.42306C174.616 9.03841 174.308 8.73071 173.923 8.49996C173.539 8.26921 173 8.11536 172.385 8.11536C171.693 8.11536 171.154 8.34611 170.693 8.73076C170.231 9.19226 169.923 9.73071 169.769 10.423H175.077V10.5Z" fill="#656C73"/>
<path d="M178.154 7.03837H179.616V8.49992H179.693C179.846 8.03837 180.231 7.57682 180.693 7.26917C181.231 6.96147 181.693 6.80762 182.231 6.80762C182.616 6.80762 182.923 6.88452 183.231 6.96147V8.57687C182.923 8.42302 182.462 8.34607 182 8.34607C181.616 8.34607 181.231 8.49992 180.846 8.73072C180.462 8.96147 180.231 9.26917 180 9.73072C179.769 10.1153 179.693 10.5769 179.693 11.0384V15.9615H178.154V7.03837Z" fill="#656C73"/>
<path d="M191 15.2694C190 14.654 189.231 13.8848 188.616 12.8848C188 11.8848 187.77 10.7309 187.77 9.50015C187.77 8.2694 188.077 7.11555 188.616 6.11555C189.231 5.11553 190 4.26937 191 3.73091C192 3.11553 193.077 2.88477 194.308 2.88477C195.231 2.88477 196.154 3.0386 196.923 3.3463C197.77 3.65399 198.385 4.11553 198.923 4.73091L197.846 5.80785C197.462 5.34629 196.923 4.96168 196.308 4.65399C195.693 4.42322 195 4.26937 194.308 4.26937C193.385 4.26937 192.616 4.50014 191.847 4.88476C191.077 5.3463 190.462 5.9617 190 6.7309C189.539 7.50015 189.308 8.42325 189.308 9.42325C189.308 10.4233 189.539 11.3463 190 12.1156C190.462 12.8848 191.077 13.5002 191.847 13.9617C192.616 14.4232 193.462 14.5771 194.308 14.5771C195.154 14.5771 195.847 14.4232 196.462 14.1925C197 13.9617 197.539 13.5771 197.923 13.1155C198.231 12.8079 198.462 12.3463 198.693 11.8848C198.846 11.4232 199 10.8848 199 10.3463H194.308V8.9617H200.385C200.462 9.26935 200.462 9.5771 200.462 9.88475C200.462 10.654 200.308 11.4233 200.077 12.1925C199.846 12.9617 199.462 13.5771 198.923 14.1156C197.693 15.3463 196.154 16.0386 194.231 16.0386C193.154 16.1156 192 15.8848 191 15.2694Z" fill="#656C73"/>
<path d="M202.23 7.03837H203.692V8.49992H203.769C203.923 8.03837 204.307 7.57682 204.769 7.26917C205.307 6.96147 205.769 6.80762 206.307 6.80762C206.692 6.80762 207 6.88452 207.307 6.96147V8.57687C207 8.42302 206.538 8.34607 206.077 8.34607C205.692 8.34607 205.307 8.49992 204.923 8.73072C204.538 8.96147 204.307 9.26917 204.077 9.73072C203.846 10.1153 203.769 10.5769 203.769 11.0384V15.9615H202.23V7.03837Z" fill="#656C73"/>
<path d="M209.692 15.5C209 15.1154 208.461 14.5 208.077 13.8077C207.692 13.1154 207.538 12.2692 207.538 11.4231C207.538 10.5769 207.692 9.73071 208.077 9.03841C208.461 8.34611 209 7.73071 209.692 7.34611C210.384 6.96151 211.153 6.73071 212 6.73071C212.846 6.73071 213.615 6.96151 214.307 7.34611C215 7.73071 215.538 8.34611 215.923 9.03841C216.307 9.73071 216.461 10.5769 216.461 11.4231C216.461 12.2692 216.307 13.1154 215.923 13.8077C215.538 14.5 215 15.1154 214.307 15.5C213.615 15.8846 212.846 16.1154 212 16.1154C211.153 16.1154 210.384 15.9615 209.692 15.5ZM213.538 14.3461C214 14.0384 214.384 13.6538 214.615 13.1923C214.923 12.6538 215 12.1154 215 11.4231C215 10.7308 214.846 10.1923 214.615 9.65381C214.307 9.11536 214 8.73071 213.538 8.49996C213.077 8.19226 212.615 8.11536 212.077 8.11536C211.538 8.11536 211.077 8.26921 210.615 8.49996C210.153 8.80766 209.769 9.19226 209.538 9.65381C209.23 10.1923 209.153 10.7308 209.153 11.4231C209.153 12.1154 209.307 12.6538 209.538 13.1923C209.846 13.7307 210.153 14.1154 210.615 14.3461C211.077 14.6538 211.538 14.7307 212.077 14.7307C212.538 14.8077 213.077 14.6538 213.538 14.3461Z" fill="#656C73"/>
<path d="M218.769 15.1924C218.231 14.5771 217.923 13.7309 217.923 12.5771V7.03857H219.461V12.3463C219.461 13.9617 220.154 14.8078 221.615 14.8078C222.077 14.8078 222.538 14.654 222.923 14.4232C223.307 14.1155 223.615 13.8078 223.846 13.3463C224.077 12.8848 224.154 12.4232 224.154 11.9617V7.11552H225.615V15.8847H224.231V14.577H224.154C223.923 15.0386 223.538 15.4232 223 15.7309C222.461 16.0386 221.923 16.1924 221.307 16.1924C220.154 16.1155 219.307 15.8078 218.769 15.1924Z" fill="#656C73"/>
<path d="M227.538 7.03841H229V8.34611H229.077C229.384 7.88456 229.769 7.49996 230.307 7.19226C230.846 6.88456 231.461 6.73071 232.153 6.73071C232.923 6.73071 233.615 6.96151 234.23 7.34611C234.846 7.73071 235.384 8.34611 235.769 9.03841C236.153 9.73071 236.307 10.5769 236.307 11.4231C236.307 12.3461 236.153 13.1153 235.769 13.8077C235.384 14.5 234.846 15.0384 234.23 15.5C233.615 15.8846 232.923 16.1153 232.153 16.1153C231.461 16.1153 230.846 15.9615 230.307 15.6538C229.769 15.3461 229.384 14.9615 229.077 14.5H229L229.077 15.7307V19.6538H227.538V7.03841ZM233.307 14.3461C233.769 14.0384 234.077 13.6538 234.384 13.1923C234.615 12.6538 234.769 12.1154 234.769 11.4231C234.769 10.7308 234.615 10.1923 234.384 9.65381C234.153 9.11536 233.769 8.73071 233.307 8.49996C232.846 8.19226 232.384 8.11536 231.846 8.11536C231.307 8.11536 230.846 8.26921 230.384 8.49996C229.923 8.73071 229.615 9.11536 229.307 9.65381C229.077 10.1923 228.923 10.7308 228.923 11.4231C228.923 12.1154 229.077 12.6538 229.307 13.1923C229.538 13.7307 229.923 14.1154 230.384 14.3461C230.846 14.5769 231.307 14.7307 231.846 14.7307C232.384 14.8077 232.923 14.6538 233.307 14.3461Z" fill="#656C73"/>
<path d="M238.462 15.423C237.846 14.9615 237.385 14.3461 237.077 13.6538L238.385 13.0384C238.616 13.5769 238.923 14.0384 239.385 14.3461C239.846 14.6538 240.308 14.8077 240.769 14.8077C241.308 14.8077 241.769 14.6538 242.154 14.423C242.539 14.1923 242.693 13.8846 242.693 13.5C242.693 13.1923 242.539 12.8846 242.308 12.6538C242 12.423 241.539 12.2692 240.846 12.0384L239.616 11.7307C238.923 11.5769 238.385 11.2692 237.923 10.8846C237.462 10.5 237.231 9.96151 237.231 9.26916C237.231 8.73071 237.385 8.26921 237.693 7.88456C238 7.49996 238.385 7.19226 238.923 6.96151C239.462 6.73071 240 6.65381 240.616 6.65381C241.385 6.65381 242.077 6.80766 242.693 7.19226C243.308 7.57691 243.769 8.03841 244 8.65381L242.693 9.19226C242.539 8.73071 242.231 8.42301 241.846 8.26921C241.462 8.03841 241 7.96151 240.539 7.96151C240.077 7.96151 239.693 8.03841 239.308 8.26921C238.923 8.49996 238.769 8.80766 238.769 9.11536C238.769 9.42306 238.923 9.65381 239.154 9.80766C239.385 9.96151 239.769 10.1154 240.308 10.2692L241.616 10.5769C242.462 10.8077 243.154 11.1153 243.539 11.5769C244 12.0384 244.154 12.5769 244.154 13.1923C244.154 13.7307 244 14.1923 243.693 14.5769C243.385 14.9615 243 15.3461 242.462 15.5769C241.923 15.8077 241.308 15.9615 240.693 15.9615C239.923 16.1154 239.077 15.8846 238.462 15.423Z" fill="#656C73"/>
<path d="M8.69235 9.73075L14.3847 6.42305C15.6924 5.6538 16.1539 3.9615 15.3847 2.57688C14.6154 1.26919 12.9231 0.807651 11.5385 1.57688L1.69238 7.2692L8.69235 9.73075Z" fill="#EA4335"/>
<path d="M12.9232 18.1154C13.9232 18.1154 14.8462 17.577 15.3077 16.7308C16.077 15.4231 15.6154 13.6539 14.3077 12.8846L4.4616 7.19235C3.15391 6.42315 1.38468 6.88465 0.615455 8.19235C-0.153778 9.50005 0.307774 11.2693 1.61546 12.0385L11.4616 17.7308C12.0001 18.0385 12.4616 18.1154 12.9232 18.1154Z" fill="#4285F4"/>
<path d="M22.6924 18.1154C23.154 18.1154 23.6155 17.9615 24.077 17.7307L33.9233 12.0385L27.0771 9.5L21.3078 12.8077C20.0001 13.577 19.5386 15.2693 20.3078 16.6539C20.8463 17.6539 21.7694 18.1154 22.6924 18.1154Z" fill="#FBBC04"/>
<path d="M32.5384 12.5C33.5384 12.5 34.4615 11.9615 34.923 11.1154C35.6923 9.80765 35.2307 8.0384 33.923 7.2692L24.0769 1.57688C22.7692 0.80765 20.9999 1.26919 20.2307 2.57688C19.4615 3.88457 19.923 5.6538 21.2307 6.42305L31.0769 12.1154C31.5384 12.3461 32.0769 12.5 32.5384 12.5Z" fill="#0F9D58"/>
</svg>
