<svg width="24" height="24" viewBox="0 0 24 24" fill="none" xmlns="http://www.w3.org/2000/svg">
<path d="M7 12.1733H12C12.1591 12.1733 12.3113 12.2366 12.4238 12.3491C12.5364 12.4616 12.5996 12.6138 12.5996 12.7729C12.5996 12.9321 12.5363 13.0843 12.4238 13.1968C12.3113 13.3093 12.1591 13.3726 12 13.3726H7C6.84087 13.3726 6.68869 13.3093 6.57617 13.1968C6.46365 13.0843 6.40039 12.9321 6.40039 12.7729L6.41211 12.6558C6.43512 12.5403 6.49171 12.4336 6.57617 12.3491C6.68869 12.2366 6.84087 12.1733 7 12.1733ZM7 9.17334H17C17.1591 9.17334 17.3113 9.2366 17.4238 9.34912C17.5363 9.46164 17.5996 9.61382 17.5996 9.77295C17.5996 9.93208 17.5363 10.0843 17.4238 10.1968C17.3113 10.3093 17.1591 10.3726 17 10.3726H7C6.84087 10.3726 6.68869 10.3093 6.57617 10.1968C6.46365 10.0843 6.40039 9.93208 6.40039 9.77295C6.40039 9.61382 6.46365 9.46164 6.57617 9.34912C6.68869 9.2366 6.84087 9.17334 7 9.17334Z" fill="black" stroke="black" stroke-width="0.3"/>
<path d="M4.75 3.4314H19.25C19.807 3.4314 20.3415 3.65183 20.7354 4.04565C21.1292 4.43948 21.3496 4.97405 21.3496 5.53101V16.0798C21.3496 16.6367 21.1291 17.1714 20.7354 17.5652C20.3415 17.959 19.807 18.1804 19.25 18.1804H15.0254L14.9805 18.241L12.4814 21.6062C12.4256 21.6813 12.3532 21.7429 12.2695 21.7849C12.1859 21.8269 12.0936 21.8484 12 21.8484C11.9064 21.8484 11.8141 21.8269 11.7305 21.7849C11.6677 21.7534 11.6114 21.7108 11.5635 21.6599L11.5186 21.6062L9.02051 18.241L8.97559 18.1804H4.75L4.54199 18.1697C4.06142 18.1219 3.60914 17.9097 3.26465 17.5652C2.87088 17.1714 2.65039 16.6367 2.65039 16.0798V5.53101C2.65039 4.97405 2.87082 4.43948 3.26465 4.04565C3.60914 3.70116 4.06141 3.48898 4.54199 3.44116L4.75 3.4314ZM19.25 4.62964L4.75 4.63062C4.51131 4.63062 4.28206 4.7255 4.11328 4.89429C3.9445 5.06307 3.84961 5.29231 3.84961 5.53101V16.0798C3.84961 16.5767 4.25316 16.9802 4.75 16.9802H9.27734C9.37083 16.9803 9.46337 17.0017 9.54688 17.0437C9.60957 17.0753 9.666 17.1178 9.71387 17.1687L9.75879 17.2224L11.8799 20.0798L12 20.2419L12.1201 20.0798L14.2422 17.2224C14.2979 17.1473 14.3705 17.0858 14.4541 17.0437C14.5169 17.0121 14.5849 16.9923 14.6543 16.9841L14.7236 16.9802H19.25C19.4887 16.9802 19.7179 16.8853 19.8867 16.7166C20.0554 16.5478 20.1504 16.3185 20.1504 16.0798V5.53003C20.1504 5.29134 20.0555 5.06209 19.8867 4.89331C19.739 4.74561 19.5449 4.65496 19.3389 4.63452L19.25 4.62964Z" fill="black" stroke="black" stroke-width="0.3"/>
</svg>
